HIERARCHY
ROOT Hips
{
	OFFSET -14.64140 90.27770 -84.91600
	CHANNELS 6 Xposition Yposition Zposition Zrotation Xrotation Yrotation
	JOINT Spine
	{
		OFFSET 0.00000 13.20850 -1.60436
		CHANNELS 3 Zrotation Xrotation Yrotation
		JOINT Spine1
		{
			OFFSET 0.00000 8.61716 0.00000
			CHANNELS 3 Zrotation Xrotation Yrotation
			JOINT Spine2
			{
				OFFSET 0.00000 8.61717 0.00000
				CHANNELS 3 Zrotation Xrotation Yrotation
				JOINT Spine3
				{
					OFFSET 0.00000 8.61717 0.00000
					CHANNELS 3 Zrotation Xrotation Yrotation
					JOINT Neck
					{
						OFFSET 0.00000 11.07920 1.10792
						CHANNELS 3 Zrotation Xrotation Yrotation
						JOINT Neck1
						{
							OFFSET 0.00000 7.08032 0.00000
							CHANNELS 3 Zrotation Xrotation Yrotation
							JOINT Head
							{
								OFFSET 0.00000 7.08031 0.00000
								CHANNELS 3 Zrotation Xrotation Yrotation
								End site
								{
									OFFSET 0.00000 0.00000 0.00000
								}
							}
						}
					}
					JOINT RightShoulder
					{
						OFFSET -0.01000 7.91373 5.19711
						CHANNELS 3 Zrotation Xrotation Yrotation
						JOINT RightArm
						{
							OFFSET -18.41580 0.00000 0.00000
							CHANNELS 3 Zrotation Xrotation Yrotation
							JOINT RightForeArm
							{
								OFFSET -29.11090 0.00000 0.00000
								CHANNELS 3 Zrotation Xrotation Yrotation
								JOINT RightHand
								{
									OFFSET -24.65040 0.00000 0.00000
									CHANNELS 3 Zrotation Xrotation Yrotation
									JOINT RightHandThumb1
									{
										OFFSET -5.35114 -0.85590 3.97906
										CHANNELS 3 Zrotation Xrotation Yrotation
										JOINT RightHandThumb2
										{
											OFFSET -4.52789 0.00000 0.00000
											CHANNELS 3 Zrotation Xrotation Yrotation
											JOINT RightHandThumb3
											{
												OFFSET -2.46976 0.00000 0.00000
												CHANNELS 3 Zrotation Xrotation Yrotation
												End site
												{
													OFFSET 0.00000 0.00000 0.00000
												}
											}
										}
									}
									JOINT RightHandIndex1
									{
										OFFSET -14.26970 0.00000 2.88139
										CHANNELS 3 Zrotation Xrotation Yrotation
										JOINT RightHandIndex2
										{
											OFFSET -5.48836 0.00000 0.00000
											CHANNELS 3 Zrotation Xrotation Yrotation
											JOINT RightHandIndex3
											{
												OFFSET -3.01859 0.00000 0.00000
												CHANNELS 3 Zrotation Xrotation Yrotation
												End site
												{
													OFFSET 0.00000 0.00000 0.00000
												}
											}
										}
									}
									JOINT RightHandMiddle1
									{
										OFFSET -14.26970 0.00000 -0.09147
										CHANNELS 3 Zrotation Xrotation Yrotation
										JOINT RightHandMiddle2
										{
											OFFSET -6.17441 0.00000 0.00000
											CHANNELS 3 Zrotation Xrotation Yrotation
											JOINT RightHandMiddle3
											{
												OFFSET -3.56743 0.00000 0.00000
												CHANNELS 3 Zrotation Xrotation Yrotation
												End site
												{
													OFFSET 0.00000 0.00000 0.00000
												}
											}
										}
									}
									JOINT RightHandRing1
									{
										OFFSET -12.69180 0.00000 -3.06433
										CHANNELS 3 Zrotation Xrotation Yrotation
										JOINT RightHandRing2
										{
											OFFSET -5.62556 0.00000 0.00000
											CHANNELS 3 Zrotation Xrotation Yrotation
											JOINT RightHandRing3
											{
												OFFSET -3.56744 0.00000 0.00000
												CHANNELS 3 Zrotation Xrotation Yrotation
												End site
												{
													OFFSET 0.00000 0.00000 0.00000
												}
											}
										}
									}
									JOINT RightHandPinky1
									{
										OFFSET -11.11390 0.00000 -6.03719
										CHANNELS 3 Zrotation Xrotation Yrotation
										JOINT RightHandPinky2
										{
											OFFSET -4.52789 0.00000 0.00000
											CHANNELS 3 Zrotation Xrotation Yrotation
											JOINT RightHandPinky3
											{
												OFFSET -2.46976 0.00000 0.00000
												CHANNELS 3 Zrotation Xrotation Yrotation
												End site
												{
													OFFSET 0.00000 0.00000 0.00000
												}
											}
										}
									}
								}
							}
						}
					}
					JOINT LeftShoulder
					{
						OFFSET 0.01000 7.91373 5.19711
						CHANNELS 3 Zrotation Xrotation Yrotation
						JOINT LeftArm
						{
							OFFSET 18.41580 0.00000 0.00000
							CHANNELS 3 Zrotation Xrotation Yrotation
							JOINT LeftForeArm
							{
								OFFSET 29.11090 0.00000 0.00000
								CHANNELS 3 Zrotation Xrotation Yrotation
								JOINT LeftHand
								{
									OFFSET 24.65040 0.00000 0.00000
									CHANNELS 3 Zrotation Xrotation Yrotation
									JOINT LeftHandThumb1
									{
										OFFSET 5.35114 -0.85590 3.97906
										CHANNELS 3 Zrotation Xrotation Yrotation
										JOINT LeftHandThumb2
										{
											OFFSET 4.52789 0.00000 0.00000
											CHANNELS 3 Zrotation Xrotation Yrotation
											JOINT LeftHandThumb3
											{
												OFFSET 2.46977 0.00000 0.00000
												CHANNELS 3 Zrotation Xrotation Yrotation
												End site
												{
													OFFSET 0.00000 0.00000 0.00000
												}
											}
										}
									}
									JOINT LeftHandIndex1
									{
										OFFSET 14.26970 0.00000 2.88139
										CHANNELS 3 Zrotation Xrotation Yrotation
										JOINT LeftHandIndex2
										{
											OFFSET 5.48836 0.00000 0.00000
											CHANNELS 3 Zrotation Xrotation Yrotation
											JOINT LeftHandIndex3
											{
												OFFSET 3.01859 0.00000 0.00000
												CHANNELS 3 Zrotation Xrotation Yrotation
												End site
												{
													OFFSET 0.00000 0.00000 0.00000
												}
											}
										}
									}
									JOINT LeftHandMiddle1
									{
										OFFSET 14.26970 0.00000 -0.09147
										CHANNELS 3 Zrotation Xrotation Yrotation
										JOINT LeftHandMiddle2
										{
											OFFSET 6.17440 0.00000 0.00000
											CHANNELS 3 Zrotation Xrotation Yrotation
											JOINT LeftHandMiddle3
											{
												OFFSET 3.56744 0.00000 0.00000
												CHANNELS 3 Zrotation Xrotation Yrotation
												End site
												{
													OFFSET 0.00000 0.00000 0.00000
												}
											}
										}
									}
									JOINT LeftHandRing1
									{
										OFFSET 12.69180 0.00000 -3.06433
										CHANNELS 3 Zrotation Xrotation Yrotation
										JOINT LeftHandRing2
										{
											OFFSET 5.62556 0.00000 0.00000
											CHANNELS 3 Zrotation Xrotation Yrotation
											JOINT LeftHandRing3
											{
												OFFSET 3.56744 0.00000 0.00000
												CHANNELS 3 Zrotation Xrotation Yrotation
												End site
												{
													OFFSET 0.00000 0.00000 0.00000
												}
											}
										}
									}
									JOINT LeftHandPinky1
									{
										OFFSET 11.11390 0.00000 -6.03719
										CHANNELS 3 Zrotation Xrotation Yrotation
										JOINT LeftHandPinky2
										{
											OFFSET 4.52789 0.00000 0.00000
											CHANNELS 3 Zrotation Xrotation Yrotation
											JOINT LeftHandPinky3
											{
												OFFSET 2.46976 0.00000 0.00000
												CHANNELS 3 Zrotation Xrotation Yrotation
												End site
												{
													OFFSET 0.00000 0.00000 0.00000
												}
											}
										}
									}
								}
							}
						}
					}
					JOINT pCube4
					{
						OFFSET 0.00000 10.91090 1.10792
						CHANNELS 3 Zrotation Xrotation Yrotation
						End site
						{
							OFFSET 0.00000 0.00000 0.00000
						}
					}
				}
			}
		}
	}
	JOINT RightUpLeg
	{
		OFFSET -9.98441 0.00000 0.00000
		CHANNELS 3 Zrotation Xrotation Yrotation
		JOINT RightLeg
		{
			OFFSET 0.00000 -42.11790 0.00000
			CHANNELS 3 Zrotation Xrotation Yrotation
			JOINT RightFoot
			{
				OFFSET 0.00000 -45.00020 -0.00001
				CHANNELS 3 Zrotation Xrotation Yrotation
				JOINT RightForeFoot
				{
					OFFSET 0.00000 -3.74820 0.00000
					CHANNELS 3 Zrotation Xrotation Yrotation
					JOINT RightToeBase
					{
						OFFSET 0.00000 0.06325 14.43120
						CHANNELS 3 Zrotation Xrotation Yrotation
						End site
						{
							OFFSET 0.00000 0.00000 0.00000
						}
					}
				}
			}
		}
	}
	JOINT LeftUpLeg
	{
		OFFSET 9.98441 0.00000 0.00000
		CHANNELS 3 Zrotation Xrotation Yrotation
		JOINT LeftLeg
		{
			OFFSET 0.00000 -42.11800 0.00000
			CHANNELS 3 Zrotation Xrotation Yrotation
			JOINT LeftFoot
			{
				OFFSET 0.00000 -45.00070 0.00000
				CHANNELS 3 Zrotation Xrotation Yrotation
				JOINT LeftForeFoot
				{
					OFFSET 0.00000 -3.74824 0.00000
					CHANNELS 3 Zrotation Xrotation Yrotation
					JOINT LeftToeBase
					{
						OFFSET 0.00000 0.06325 14.43110
						CHANNELS 3 Zrotation Xrotation Yrotation
						End site
						{
							OFFSET 0.00000 0.00000 0.00000
						}
					}
				}
			}
		}
	}
}
MOTION
Frames: 4
Frame Time: 0.050000
0.00715294960835647 -0.011098219999494712 -0.007534402308000835 -0.02645242107055941 0.024790292402032628 -0.02633227140808026 -2.2423513612329264 1.0188880553158164 -0.8583234783773578 -1.1487435257464895 3.9355986402023064 0.3619063742961719 -1.1910486098337492 -1.91871376736775 -2.0013276125562074 -0.0018214236252465203 0.5323631422622158 -0.9467484749140357 -1.055017599319514 13.429122308401963 2.6162844625664134 0.05893641985681513 -0.13712518024639841 5.625401211256029 -0.6747425393416804 -15.382880730299629 0.49414604182069954 -4.973864274799506 1.7044159316446637 -16.001094688106843 73.03420175356315 16.584695180836096 -4.698533191943973 4.926331764322473 -1.9217848710980143 43.100467193642245 20.16821760075675 -0.11980514796488846 -2.5908075889407716 4.537901645021408 -0.16487959303399086 -1.5648415284350454 0.04062551749121088 0.036307550407926416 -56.19771752545236 -0.005109725243230207 0.002969749595230101 -56.1865797776399 -38.79338805920959 -0.018571171601333713 0.03451825582530956 0.019980845529384592 -0.03729569311529529 0.0295679328890304 -0.03225647064761615 0.0029748694910846666 -0.008318199505743763 -36.676925561593514 0.0259894483958293 -0.017403766874842602 0.029984976058316525 -0.048490524561093214 -0.023861341615195125 0.0032387578121166136 -0.027731766635122345 -0.007057107697643726 -19.804147097361557 0.013368219577160473 -0.007252377940343979 -0.026751777063707047 0.04516365673358873 -0.02534223694104585 -0.028594807124196722 0.005770857595635254 0.003378574406097988 24.079539650219104 0.012878374585763753 -0.021407246706485254 28.846055236095424 -0.038772231251682165 0.011473789764725953 28.879416406838782 0.007092032402713265 -0.01869299382977837 8.257371151805422 1.7023495328565492 14.13028107338012 -69.0818118655778 18.530726090986875 -10.86068508149882 -1.659351647787822 -17.648532413143226 -61.938431898033315 -6.488903241869954 -0.5394302961004335 1.481335316570022 -0.4758276476477117 0.05350817824579109 -8.114207972494105 -0.0351333397749278 0.01639531054450001 44.53740856522545 0.0408819443607301 -0.048452154989413965 44.549395252744716 12.465346945243441 -0.019763120448347125 -0.028657578026627092 0.007070917760758497 -0.0016336440271524308 -0.013553655412130529 0.027947810180777143 -0.03315891913780956 0.020608798306832488 11.074889083480851 0.01703146758226376 -0.039486102639296125 0.0028844325276913894 -0.03506549695874087 0.0370991335132453 -0.0025586028967924026 -0.006620954517260392 -0.024456660756103976 4.763208711207176 0.0336475220221999 -0.02499500596568097 -0.00681830504231425 0.04903680814265354 0.04699927997907224 0.04405002423625279 0.005837283443834104 0.008099127770451887 -5.593447847576092 0.01409449761441213 -0.02274456707782624 -6.701856371732251 0.007658145688785835 0.046242193595966714 -6.764206854518776 -0.04044264314002861 -0.025946501337693995 -0.03708201044599426 0.035899437999286334 0.013069079494839672 8.002397151152731 3.507135938690853 -19.173926944174394 -0.0008497427927626367 10.438686112037235 0.03202053411433979 -5.631827860956894 -15.676256381359918 3.212860498459627 -0.005268801274584449 -0.049278236709397516 0.03017341896833084 0.030088119247013875 4.717050802630231 -0.014307266333122287 12.488788836407435 -8.237639064221545 6.834350439886397 -0.026654427863885735 46.406203119920164 -0.03063080061923551 -4.347029985149749 -14.707611688317234 -3.790631720704174 0.014686331499499815 0.039194580305610724 -0.020305586636302574 -0.018158618377632538 -10.774400492683688 -0.015728599670075546 
-0.021398951384396264 0.04715508680505356 0.023297827851348093 0.006334286377399316 0.02036401850355653 0.04001381220842029 -2.259299584692708 1.133608138059727 -0.8596097661300892 -1.1111097669829098 3.9141238473474633 0.4156670147272567 -1.1576285555236778 -1.8560494559750773 -1.8254240188819304 -0.09831694862866484 0.5486727757912621 -0.9292003654742915 -1.1448139646998 13.219259746434316 2.8428009463064408 0.0025718766817536412 -0.2838374864678391 6.085366204777302 -0.8017955420283007 -15.511709917985154 0.5390695330242302 -4.695135299587326 1.6180830575779175 -16.113042318432907 73.07812220844718 17.22952532081334 -5.6126157090580495 5.303370546847805 -2.0035577923550636 42.325543991152635 20.19854432481169 -0.16983987538974202 -2.673445679035431 4.560658405745322 -0.1498504396379603 -1.602176056348932 0.03479823057100886 0.04292874786793541 -56.22025119687924 0.0011478659958645433 0.026739449418005646 -56.18727803888194 -38.8075617323352 -0.04499741222291626 -0.007776064196987268 -0.017791712125511738 -0.02318388191696053 0.0015608918377384782 -0.03740663108737597 -0.03848575621103272 0.025793837805868487 -36.67942351223971 -0.010350078168961337 0.015581853638190247 0.04690633581513404 0.002390803763100035 -0.003772657109500369 0.026930686318121583 0.026685192683148968 0.0246466348992498 -19.769038758936823 -0.03099065918737633 -0.011587396883096122 -0.03752456202419215 -0.0036588963940305205 -0.008393271432529313 0.00974496968080857 -0.036074344129008624 -0.007710484421008964 24.052684572143104 -0.006430813426953226 0.0021269677038974195 28.86549871018086 -0.030671223423108688 0.04662712664491248 28.83831551566897 0.03832406486393409 0.0005529411995547067 7.876267623593106 1.6481884668947098 14.316632815514716 -70.14535471696092 19.34284419390649 -8.803220923130652 -2.0332711194493904 -17.403217906243516 -61.843191844946766 -7.0881624606931375 -0.6720582808491777 1.5976314547497688 -0.444735575472455 0.06285717727281166 -8.106186705694093 -0.026595918449121826 -0.031614967577494484 44.58851889657628 -0.04427771238608297 -0.02425998980536744 44.57081369037076 12.47649179634782 0.027345255221401302 0.0054138044820102845 0.011302678604415155 0.019747424762386116 -0.006495208480598316 -0.0224145354264205 0.03485008869432516 0.003139269184541503 11.10526498006408 0.01236213321256038 0.026349928419636036 0.038648077090907354 0.003320164069168388 -0.0001435058248014088 0.012343856638027124 -0.01865650982602539 0.004651744136247763 4.753118953082263 0.015021920743493367 0.009952366652950486 -0.005641752409788024 0.011508941691728933 0.021043681001380023 0.034355901489050565 -0.04764243626073078 -0.031514320963680224 -5.6377228996804565 0.03274906046039301 0.007212371079095358 -6.691681858339539 0.030858247528728917 0.04227236851747198 -6.705434918752009 -0.008403796311061218 -0.048666570875038076 0.044052028663440934 -0.0022587867419333984 0.04472797656000515 8.071044978097271 3.4864983130757663 -19.228971522677053 0.005803041058000658 10.359559459682318 0.020396223873262558 -5.612820129622609 -15.651439096717079 3.181185588273269 0.004808623235471819 0.04869219461670323 -0.049146170139559166 -0.04482781223805949 4.729427115551414 -0.0035457290522155067 12.436459396268631 -8.219623157204511 6.880633459922755 -0.011350336090323104 46.3459007944707 0.009535015068905363 -4.322536110211748 -14.725768788842185 -3.839688546055667 -0.03632469462819969 -0.006572882782847326 0.02186590650452994 -0.011748150301562272 -10.763203765427022 -0.031789920346360856 
0.018841457094084163 0.04478869855200372 0.027174035324414994 0.010741678587748776 -0.012245518630004226 0.0018252631822851268 -2.2203812314939957 1.0391739208191255 -0.8204125655496607 -1.1722602070522428 3.9186120841248844 0.39380021128896464 -1.1727410133666287 -1.9049962046136668 -1.750902188795466 -0.10810094748469475 0.5604871047763238 -0.8917102322933663 -1.204630382273769 13.17025071058789 3.0976764803404477 -0.0631717645850243 -0.25528510767392676 6.449486902240246 -0.8932934582836497 -15.528136476533904 0.5118423103921507 -4.4740702607802465 1.5539215415643524 -16.093064787659067 73.12059344180332 17.930587442274607 -6.282333493087735 4.859694398938952 -2.062319146736057 41.73816991989402 20.07782123781249 -0.15105284621790974 -2.7804255317926954 4.553978948137146 -0.1293887499922626 -1.5744693651637776 0.026805713673826625 -0.016142879308602885 -56.20152129693027 0.03712526988085809 0.00902536011573846 -56.210957074608984 -38.720189452871836 -0.041397216782169774 0.0015299677496885672 0.0006077354110982083 0.03181061346036796 -0.035393804865296155 0.040872564114585334 0.007289070331987272 0.02396192804712536 -36.66337966603277 0.00651589688182907 0.01408834536394719 0.015368635084784105 -0.014638892126026546 0.029294693160305096 -0.04186190332965438 -0.003330885207065585 0.04307517276635056 -19.759014316025112 -0.01867140922954699 -0.002088285044763557 0.02520360453051072 0.004816509293868798 -0.0403120405328625 0.007540882094260755 -0.03346666466844673 0.0007203804701644324 24.07586514047651 -0.027079285227055293 0.0024589938731746745 28.849703275841122 -0.04074585718104478 -0.033290052263800406 28.828151589079557 -0.025744579617916655 0.01210203557862578 7.8576848195920075 1.662014930916567 14.399595982396008 -70.39217928022865 19.68164781861435 -8.338765047455801 -0.1566102422513942 -17.994522798899798 -64.36593925569082 -6.810851253595844 -1.0272599865817709 1.6410476797063367 -0.45843559668560685 0.0906429281483534 -8.143685480728307 0.018160256505772954 -0.029100357197848307 44.59296276364715 -0.03985299362185563 -0.013720761026478262 44.58790456956489 12.463665914248677 -0.04054901774847762 0.04485076337194061 0.04913212797726855 -0.040230323880673845 0.011326871603559436 -0.01557320072667098 -0.02635636921411797 -0.00028114069838663046 11.091487091813487 -0.04671492641156281 -0.02580503489616167 0.001950566663164073 0.04394960677391559 0.036436341693849676 0.019927439527091438 0.03980755353853752 0.00835842858577072 4.753810084980759 -0.03253738120590886 0.023904937272936026 -0.021136255602287178 0.0060016332294258136 0.022545525924061706 -0.04955994905035316 -0.017782025923585194 -0.007196419473777775 -5.600177093218157 -0.013856247728634795 -0.03224619710334183 -6.720107771194617 0.04598827291590629 0.018492265103509965 -6.724513915011134 0.01958650282641033 0.016523100428002906 -0.016404178664443318 -0.00838089435214118 -0.031523413152509366 8.017006163510352 3.5299707733613794 -19.256474124077794 0.04689325989095816 10.421537661354417 -0.029123631396312227 -5.618526301420367 -15.650600802911441 3.231156662615669 0.0421300878338354 -0.020088554482833493 0.016552957552180506 0.03310228656629132 4.698673055170175 -0.03414803187389966 12.477860534908446 -8.202616562543046 6.861785534378723 -0.016456741537918044 46.38074739309001 0.008376559320388322 -4.349628552177823 -14.729389458663752 -3.8525632352304675 0.029113907364651737 0.020533358029353778 0.015800836418589283 0.03631489596876942 -10.761234165945208 0.03210204187157341 
0.026089178749070005 -0.04443143585913277 0.012744755784909679 0.009670287728755842 -0.013439206390615799 -0.01739019035161876 -2.091323389244317 1.0811135440980244 -0.8862085483558748 -1.1431764927133168 3.894368596717395 0.3888479803054989 -1.1290343699032537 -1.8845218967717297 -1.8822382649297327 -0.08480747657631456 0.5410954102111653 -0.9132059414739992 -1.2364452516790765 13.097613589071189 3.091643527666028 -0.07608924221400176 -0.29720408703378776 6.526285482291055 -0.8914859439504615 -15.667473776112518 0.515068246539859 -4.367390755357987 1.5408667381864058 -16.090161836245965 72.8942091147525 18.14836374150924 -6.341225841232164 5.240424203918317 -1.9955704492526996 42.21425412079451 20.09364075591475 -0.06471196957314929 -2.9059445596249294 4.562033864255214 -0.10755289207798219 -1.606605127542811 0.0004819769356088729 -0.03341089231399187 -56.202541819852804 -0.003962919064226429 -0.0194026203239668 -56.24497403997926 -38.79522562257351 -0.026850926238825856 -0.04294715973642257 0.0021946976385412726 -0.039029535098671866 -0.018543567995662934 -0.014211356891672522 0.038121486260524765 0.028081585686041508 -36.696958286303875 -0.024764661908322456 0.003890840983292955 -0.001954515232118439 0.008856124589892348 -0.04993272895905398 -0.007092426471634863 -0.02460825391092834 -0.006550966097478112 -19.790895440804878 -0.03608235629418268 0.012346237728067188 -0.01532686284611871 0.036099130070510174 -0.019732973523228958 0.03227889102077602 -0.003192077147280201 -0.011197900757305052 24.04251283181798 -0.026373247345353745 -0.004880324681483095 28.834492051108025 0.0027965073940234724 -0.020986824041955697 28.851611300953596 0.02821599385378341 0.0014788821633767873 7.925757464937379 1.6594240616197924 14.368620696791824 -70.06521663846611 19.511255176611353 -8.992179017756518 0.9088491736836156 -18.33234492643053 -67.45815959550592 -6.296433084233419 -1.2335066388684055 1.5155743528461223 -0.4588579607562483 0.03057984638355067 -8.160985382761028 0.02689975527397846 -0.03786607151450708 44.53053160153327 0.043891348071924866 -0.014046348946560119 44.53263069013095 12.435065815466402 -0.033649526412170915 0.026685648505960974 -0.04245937297684784 -0.02369469489138637 0.0385525423322112 0.007955303335806286 -0.034285694297199285 -0.004259246608554273 11.150283445606203 -0.033358749294580874 0.014758227572897473 0.0067398386409556876 0.008335497027460977 0.020370329220717978 -0.005472658501042087 -0.025276846164039444 0.001572663545449941 4.761634255058963 -0.021466285570082608 0.03224109967475365 0.029527775265742465 -0.007340697763524564 0.04534728225513416 0.029086080938447462 -0.012711124018592878 0.030380249318448464 -5.575447815165372 0.03841020774056254 -0.0035032280759190967 -6.710534416761135 0.018412918032641584 -1.3361884841846015e-05 -6.741374585800365 0.035244296531344074 0.03092426580798171 0.038838715752934294 -0.008804550316304904 -0.0055483859023408915 8.070459135939377 3.487354382880238 -19.1885843927303 -0.0020631220243159973 10.369548372403743 0.02486207720314168 -5.6513864921248365 -15.660050944604532 3.222879911627025 0.01072698628686451 0.016356464514091666 0.046564636773783044 0.028543275911237755 4.719602214721431 -0.031386512227776164 12.43477713758432 -8.25239786623176 6.912693696977348 0.02676616072549105 46.35545160575082 0.0025844071218114007 -4.308070218908187 -14.727565944608742 -3.805132377266558 -0.00027693086576710476 0.043104806250833246 0.02521850513798355 0.04238304374509905 -10.718828732007601 -0.029585718653142662 
